<svg width="206" height="84" viewBox="0 0 206 84" fill="none" xmlns="http://www.w3.org/2000/svg">
<path d="M163.338 16.1653L154.617 54.3309C149.068 53.1231 143.437 51.6875 137.746 50.3064L145.619 16.1653H163.338ZM189.245 28.6191C189.335 28.3252 189.374 28.0028 189.365 27.6787C189.296 25.2745 186.965 24.694 184.914 24.694C183.194 24.694 181.001 25.6462 180.969 27.5568C180.929 29.8877 184.846 30.3445 186.719 30.6264C194.78 31.8399 203.551 34.0251 203.378 44.0522C203.326 47.0776 202.504 49.5731 201.141 51.6149C189.916 57.7484 177.886 58.1385 165.334 56.3157C162.744 54.6777 160.766 52.3338 160.015 49.0281C159.677 47.5418 159.674 46.0469 159.837 44.537H176.206C175.985 48.0957 178.088 49.2948 181.294 49.2948C183.264 49.2948 186.266 48.7979 186.266 46.2745C186.266 43.6924 182.404 43.0714 180.472 42.7649C177.115 42.2325 173.713 41.6486 170.598 40.2127C166.329 38.2447 163.841 34.679 163.923 29.8785C164.126 18.0619 175.942 15.0932 186.1 15.0932C191.862 15.0932 200.14 16.1313 203.873 21.2825C205.64 23.7198 205.766 25.7849 205.686 28.6191H189.245ZM143.371 0L132.138 48.9771C126.494 47.6824 120.799 46.5379 115.077 45.8062L125.653 0H143.371ZM26.1121 58.723L56.5899 0H36.0836L28.3846 16.6602C25.0575 23.8604 22.2967 30.5422 20.0644 36.6827C20.3047 32.2821 20.3633 26.6526 20.3001 19.7942C20.2786 17.4857 20.1643 14.0765 19.9571 9.56723L19.5168 0H0L3.98709 58.723H26.1121ZM62.4693 58.5635C59.8886 59.6976 57.0475 60.1252 54.1302 60.1252C45.9108 60.1252 39.6705 57.2278 39.8296 48.0724C39.9352 41.9763 42.7153 37.9083 48.1973 35.5728C52.5837 33.7034 57.9918 33.2151 62.4087 32.913C64.9066 32.7421 70.8933 32.7914 72.4108 30.5123C72.697 30.0827 72.8674 29.5786 72.9498 28.9967C73.1734 27.4144 72.7015 26.3529 71.7893 25.7884C70.4047 24.9317 67.5525 24.8939 66.0369 25.3996C64.2981 25.9792 63.3693 27.2471 62.6976 29.1966H46.059C48.6295 16.9683 57.8947 14.9282 69.2653 14.9282C73.798 14.9282 80.9197 15.3233 85.435 18.1783C88.8193 20.3178 89.9549 23.353 89.8371 27.2635C89.7739 29.355 89.3473 31.5735 88.8297 33.7964L85.7459 47.037C77.9538 49.0376 70.1767 52.6567 62.4693 58.5635ZM70.2045 40.6787C69.2056 41.1676 68.365 41.4528 67.4862 41.6448C64.8533 42.221 60.9811 41.9755 58.9212 43.6915C58.1588 44.3266 57.6723 45.2275 57.6499 46.5277C57.5687 51.2059 64.828 50.6187 67.4026 47.4743C68.9476 45.5871 69.5907 43.0034 70.2045 40.6787ZM119.66 0L109.289 45.2171C103.324 44.7806 97.3361 44.9039 91.3494 45.8757L101.942 0H119.66ZM167.085 0L164.496 11.3816H146.688L149.278 0H167.085Z" fill="#FEFEFE"/>
<path d="M10.042 74.5859C9.79451 75.8688 9.24231 76.847 8.38557 77.5205C7.52855 78.1941 6.45414 78.5308 5.16197 78.5308C3.78744 78.5308 2.72447 78.1483 1.97306 77.3833C1.22165 76.6179 0.845703 75.5387 0.845703 74.1461C0.845703 72.4415 1.32228 71.0393 2.2755 69.9396C3.22843 68.8401 4.52502 68.2901 6.16547 68.2901C7.43025 68.2901 8.43824 68.6178 9.18965 69.273C9.94106 69.9282 10.3167 70.8057 10.3167 71.9053C10.3167 71.997 10.3123 72.0794 10.3032 72.1529H7.43025C7.40265 71.1723 6.94897 70.6819 6.06927 70.6819C5.67534 70.6819 5.32678 70.7941 5.02456 71.0188C4.72212 71.2433 4.48851 71.5342 4.3237 71.8917C4.15848 72.2489 4.03468 72.6157 3.95225 72.9911C3.86988 73.3671 3.82887 73.7381 3.82887 74.1047C3.82887 74.7646 3.9639 75.273 4.23411 75.6305C4.50466 75.9879 4.88693 76.1667 5.38204 76.1667C6.26195 76.1667 6.82517 75.6396 7.07284 74.5859H10.042ZM11.3336 73.3762C11.4252 72.8994 11.5857 72.4986 11.8145 72.1733C12.0436 71.8481 12.3346 71.6028 12.6876 71.438C13.0404 71.273 13.4025 71.1583 13.7735 71.0944C14.1446 71.03 14.5685 70.9981 15.0448 70.9981C17.2993 70.9981 18.4266 71.6213 18.4266 72.8676C18.4266 73.17 18.3667 73.5869 18.2478 74.1185L17.753 76.414C17.6338 77.0097 17.5743 77.4266 17.5743 77.6651C17.5743 77.9215 17.6017 78.1323 17.6568 78.2971H14.9212C14.903 78.2239 14.8937 78.1415 14.8937 78.0497C14.8937 77.9491 14.903 77.8023 14.9212 77.6098C14.4081 78.2239 13.652 78.5308 12.6532 78.5308C11.9383 78.5308 11.377 78.3521 10.9694 77.9947C10.5614 77.6375 10.3575 77.1473 10.3575 76.5242C10.3575 75.7449 10.6326 75.1653 11.1825 74.7849C11.7321 74.4048 12.5385 74.1691 13.6015 74.0771C13.7298 74.0682 13.9086 74.0565 14.1377 74.0429C14.3669 74.0291 14.5317 74.0176 14.6326 74.0083C14.7333 73.9993 14.8639 73.9832 15.0243 73.9603C15.1848 73.9375 15.2993 73.9076 15.3681 73.871C15.4367 73.8345 15.5147 73.7885 15.6017 73.7336C15.6888 73.6787 15.7459 73.6075 15.7736 73.5204C15.8009 73.4334 15.8147 73.3304 15.8147 73.2114C15.8147 72.8263 15.5168 72.6337 14.9212 72.6337C14.6279 72.6337 14.4035 72.6887 14.2476 72.799C14.0919 72.9088 13.9682 73.1012 13.8765 73.3762H11.3336ZM15.4299 75.1218C15.3105 75.2044 15.171 75.2662 15.0106 75.3077C14.8503 75.3486 14.6576 75.3784 14.4334 75.3968C14.2089 75.4153 14.0553 75.4333 13.9729 75.4518C13.3863 75.5616 13.093 75.8323 13.093 76.2627C13.093 76.7025 13.3587 76.9226 13.8905 76.9226C14.321 76.9226 14.6371 76.8105 14.8388 76.5858C15.0404 76.3613 15.2007 76.02 15.3199 75.5616L15.4299 75.1218ZM24.5019 73.541L24.9967 71.2041H27.7048L26.1929 78.2971H23.4848L24.062 75.589H22.0688L21.4915 78.2971H18.7834L20.2956 71.2041H23.0035L22.5087 73.541H24.5019ZM30.3161 73.2524H28.048L28.4878 71.2041H35.7183L35.2784 73.2524H33.0101L31.938 78.2971H29.244L30.3161 73.2524ZM42.5908 76.2077C42.1144 77.7381 40.8543 78.5034 38.8108 78.5034C37.7019 78.5034 36.8267 78.24 36.1853 77.7129C35.5439 77.1859 35.223 76.359 35.223 75.232C35.223 73.9854 35.6127 72.9729 36.3915 72.1939C37.1705 71.4151 38.1876 71.0256 39.4433 71.0256C40.561 71.0256 41.4337 71.3119 42.0617 71.8846C42.6894 72.4575 43.0032 73.2524 43.0032 74.2695C43.0032 74.6178 42.9667 74.9889 42.8934 75.383H37.766C37.7567 75.4472 37.7523 75.5113 37.7523 75.5755C37.7523 76.3636 38.1511 76.7578 38.9482 76.7578C39.4433 76.7578 39.7773 76.5743 39.9517 76.2077H42.5908ZM37.9859 73.9672H40.4603V73.8161C40.4603 73.5045 40.3639 73.2547 40.1717 73.0668C39.9791 72.879 39.7226 72.7849 39.4019 72.7849C39.0629 72.7849 38.767 72.8881 38.5154 73.0944C38.2633 73.3006 38.0867 73.5914 37.9859 73.9672ZM51.1541 71.2041L48.3088 74.627L50.0956 78.2971H47.3465L46.934 77.3901C46.8151 77.1059 46.7004 76.7943 46.5906 76.4554C46.4073 76.7485 46.2425 76.9961 46.0957 77.1977L45.2573 78.2971H42.2467L45.4633 74.5032L43.8275 71.2041H46.5906L46.934 72.0565C47.0075 72.2397 47.0763 72.4733 47.1402 72.7575C47.3144 72.446 47.4565 72.2123 47.5665 72.0565L48.1714 71.2041H51.1541ZM56.1985 73.541L56.6933 71.2041H59.4014L57.8895 78.2971H55.1813L55.7586 75.589H53.7654L53.1881 78.2971H50.48L51.9924 71.2041H54.7001L54.2052 73.541H56.1985ZM65.3668 71.2041H68.1433L66.6313 78.2971H64.0332L64.8443 74.5171H64.8031L61.9991 78.2971H59.2221L60.7343 71.2041H63.3322L62.5487 74.8882H62.5901L65.3668 71.2041ZM76.9816 71.2041L73.7513 74.1735L75.6895 78.2971H72.7204L71.8131 75.9605L70.9472 76.744L70.6308 78.2971H67.9231L69.435 71.2041H72.0743L71.5794 73.541H71.6206L73.8201 71.2041H76.9816ZM77.2423 73.3762C77.3338 72.8994 77.4944 72.4986 77.7233 72.1733C77.9525 71.8481 78.2432 71.6028 78.5962 71.438C78.9492 71.273 79.3111 71.1583 79.6821 71.0944C80.0531 71.03 80.4773 70.9981 80.9536 70.9981C83.2079 70.9981 84.3352 71.6213 84.3352 72.8676C84.3352 73.17 84.2755 73.5869 84.1566 74.1185L83.6617 76.414C83.5424 77.0097 83.4829 77.4266 83.4829 77.6651C83.4829 77.9215 83.5106 78.1323 83.5653 78.2971H80.8298C80.8118 78.2239 80.8024 78.1415 80.8024 78.0497C80.8024 77.9491 80.8118 77.8023 80.8298 77.6098C80.3169 78.2239 79.5606 78.5308 78.562 78.5308C77.8471 78.5308 77.2856 78.3521 76.878 77.9947C76.4702 77.6375 76.2663 77.1473 76.2663 76.5242C76.2663 75.7449 76.5411 75.1653 77.091 74.7849C77.6409 74.4048 78.4473 74.1691 79.5103 74.0771C79.6386 74.0682 79.8172 74.0565 80.0463 74.0429C80.2755 74.0291 80.4403 74.0176 80.5412 74.0083C80.6421 73.9993 80.7727 73.9832 80.933 73.9603C81.0936 73.9375 81.2079 73.9076 81.2767 73.871C81.3453 73.8345 81.4232 73.7885 81.5105 73.7336C81.5974 73.6787 81.6548 73.6075 81.6821 73.5204C81.7095 73.4334 81.7236 73.3304 81.7236 73.2114C81.7236 72.8263 81.4256 72.6337 80.8298 72.6337C80.5367 72.6337 80.312 72.6887 80.1564 72.799C80.0005 72.9088 79.8771 73.1012 79.7853 73.3762H77.2423ZM81.3385 75.1218C81.2193 75.2044 81.0796 75.2662 80.9192 75.3077C80.7591 75.3486 80.5665 75.3784 80.342 75.3968C80.1175 75.4153 79.964 75.4333 79.8815 75.4518C79.2949 75.5616 79.0018 75.8323 79.0018 76.2627C79.0018 76.7025 79.2675 76.9226 79.7992 76.9226C80.2297 76.9226 80.5456 76.8105 80.7475 76.5858C80.949 76.3613 81.1093 76.02 81.2287 75.5616L81.3385 75.1218Z" fill="#FEFEFE"/>
<path d="M200.81 61.3623C182.592 109.109 128.53 64.7099 99.8127 58.4034C90.5789 56.3755 78.7587 55.9998 67.021 58.7232C111.105 30.0551 150.121 77.6436 200.81 61.3623H200.81Z" fill="url(#paint0_linear)"/>
<defs>
<linearGradient id="paint0_linear" x1="147.411" y1="62.2482" x2="78.0299" y2="59.327" gradientUnits="userSpaceOnUse">
<stop stop-color="#00A8E7"/>
<stop offset="1" stop-color="#008DD2"/>
</linearGradient>
</defs>
</svg>
