<svg width="30" height="22" viewBox="0 0 30 22" fill="none" xmlns="http://www.w3.org/2000/svg">
<path d="M0.565811 6.94507C0.338148 6.77528 -0.000429153 6.93411 -0.000429153 7.2025V18.4033C-0.000429153 19.8548 1.25464 21.0324 2.80158 21.0324H27.0857C28.6326 21.0324 29.8877 19.8548 29.8877 18.4033V7.20797C29.8877 6.93411 29.555 6.78075 29.3215 6.95055C28.0139 7.90358 26.2801 9.11403 20.3258 13.1726C19.0941 14.0161 17.016 15.7907 14.9436 15.7798C12.8596 15.7962 10.7406 13.9832 9.5556 13.1726C3.60132 9.11403 1.87342 7.8981 0.565811 6.94507ZM14.9436 14.0216C13.5893 14.0435 11.6396 12.4223 10.6589 11.754C2.9125 6.47951 2.32291 6.01942 0.536623 4.7049C0.198048 4.45843 -0.000429153 4.07502 -0.000429153 3.66971V2.62905C-0.000429153 1.17759 1.25464 0 2.80158 0H27.0857C28.6326 0 29.8877 1.17759 29.8877 2.62905V3.66971C29.8877 4.07502 29.6892 4.45295 29.3506 4.7049C27.5644 6.01395 26.9748 6.47951 19.2284 11.754C18.2477 12.4223 16.2979 14.0435 14.9436 14.0216Z" fill="#00ADE9"/>
</svg>
