<svg width="23" height="33" viewBox="0 0 23 33" fill="none" xmlns="http://www.w3.org/2000/svg">
<path d="M12.8488 31.5397C21.1043 18.4496 22.6367 17.1062 22.6367 12.2953C22.6367 5.70556 17.7526 0.363525 11.7276 0.363525C5.70268 0.363525 0.818537 5.70556 0.818537 12.2953C0.818537 17.1062 2.35092 18.4496 10.6065 31.5397C11.1483 32.3957 12.3071 32.3957 12.8488 31.5397ZM11.7276 17.2669C9.21723 17.2669 7.18217 15.0411 7.18217 12.2953C7.18217 9.54959 9.21723 7.32375 11.7276 7.32375C14.238 7.32375 16.2731 9.54959 16.2731 12.2953C16.2731 15.0411 14.238 17.2669 11.7276 17.2669Z" fill="white"/>
</svg>
