<svg width="23" height="34" viewBox="0 0 23 34" fill="none" xmlns="http://www.w3.org/2000/svg">
<path d="M12.2076 32.4033C20.5847 19.1964 22.1396 17.841 22.1396 12.9872C22.1396 6.33867 17.1836 0.948975 11.07 0.948975C4.95634 0.948975 0.000297546 6.33867 0.000297546 12.9872C0.000297546 17.841 1.55524 19.1964 9.93233 32.4033C10.4821 33.267 11.6579 33.2669 12.2076 32.4033ZM11.07 18.0032C8.52262 18.0032 6.45761 15.7575 6.45761 12.9872C6.45761 10.217 8.52262 7.9713 11.07 7.9713C13.6173 7.9713 15.6823 10.217 15.6823 12.9872C15.6823 15.7575 13.6173 18.0032 11.07 18.0032Z" fill="#00ADE9"/>
</svg>
