<svg width="24" height="27" viewBox="0 0 24 27" fill="none" xmlns="http://www.w3.org/2000/svg">
<path d="M22.5834 18.8244L17.4982 16.3336C17.2809 16.2278 17.0395 16.2055 16.8102 16.2701C16.5809 16.3347 16.3762 16.4826 16.2268 16.6917L13.9748 19.8362C10.4405 17.9318 7.59614 14.6811 5.92973 10.6418L8.6812 8.06808C8.86448 7.89772 8.99421 7.66374 9.05074 7.40158C9.10727 7.13942 9.08752 6.86335 8.99448 6.61516L6.8151 0.803479C6.713 0.535939 6.53241 0.317501 6.30447 0.185832C6.07654 0.0541622 5.81555 0.0175146 5.5665 0.0822078L0.84451 1.32757C0.604401 1.39094 0.390175 1.54544 0.236797 1.76588C0.0834181 1.98631 -5.53113e-05 2.25964 2.74975e-08 2.54128C2.74975e-08 15.8511 9.43944 26.6182 21.0673 26.6182C21.3138 26.6184 21.5531 26.5231 21.7461 26.3478C21.9391 26.1725 22.0743 25.9276 22.1298 25.6531L23.2195 20.2565C23.2757 19.9705 23.243 19.6711 23.1269 19.4097C23.0108 19.1483 22.8186 18.9413 22.5834 18.8244Z" fill="#00ADE9"/>
</svg>
